<svg width="24" height="24" viewBox="0 0 24 24" fill="none" xmlns="http://www.w3.org/2000/svg">
<path d="M11.9153 18.8855C15.718 18.8855 18.8008 15.8028 18.8008 12C18.8008 8.19725 15.718 5.1145 11.9153 5.1145C8.11253 5.1145 5.02979 8.19725 5.02979 12C5.02979 15.8028 8.11253 18.8855 11.9153 18.8855Z" stroke="black" stroke-width="0.5" stroke-linecap="round" stroke-linejoin="round"/>
<path d="M14.928 14.2615L11.9155 12V7.308M15.81 6.3225L15.3445 3.1065C15.31 2.86857 15.1909 2.65104 15.0091 2.49374C14.8273 2.33645 14.5949 2.24992 14.3545 2.25H9.476C9.23567 2.25004 9.00339 2.33662 8.82168 2.49391C8.63997 2.65119 8.52098 2.86866 8.4865 3.1065L8.021 6.3225M8.021 17.6775L8.4865 20.8935C8.521 21.1314 8.64006 21.349 8.82187 21.5063C9.00369 21.6636 9.23608 21.7501 9.4765 21.75H14.355C14.5953 21.75 14.8276 21.6634 15.0093 21.5061C15.191 21.3488 15.31 21.1313 15.3445 20.8935L15.81 17.6775" stroke="black" stroke-width="0.5" stroke-linecap="round" stroke-linejoin="round"/>
</svg>
