<svg width="36" height="37" viewBox="0 0 36 37" fill="none" xmlns="http://www.w3.org/2000/svg">
<g clip-path="url(#clip0_1_130)">
<path d="M9.62044 20.8321L4.03418 34.4873L8.379 33.2458L10.2411 36.97L15.8273 23.9355L9.62044 20.8321Z" fill="#DE4C3C"/>
<path d="M23.2752 20.2114L17.0684 23.9355L22.6545 36.97L24.5166 33.2458L28.8615 34.4873L23.2752 20.2114Z" fill="#DE4C3C"/>
<path d="M9.62094 20.8321L7.56641 25.8534L7.67195 25.8844L9.00022 30.0058L13.2333 29.0996L13.5064 29.3479L15.8278 23.9355L9.62094 20.8321Z" fill="#C74436"/>
<path d="M17.0693 23.9355L19.3907 29.3479L19.6638 29.0996L23.8969 30.0058L25.2252 25.8845L25.4673 25.81L23.2762 20.2114L17.0693 23.9355Z" fill="#C74436"/>
<path d="M16.4483 0.970001L19.6635 3.87482L23.8966 2.96245L25.2248 7.09L29.3462 8.41827L28.44 12.6514L31.3448 15.8665L28.44 19.0817L29.3462 23.3148L25.2248 24.6431L23.8966 28.7645L19.6635 27.8583L16.4483 30.7631L13.2331 27.8583L9.00003 28.7645L7.67176 24.6431L3.5442 23.3148L4.45658 19.0817L1.55176 15.8665L4.45658 12.6514L3.5442 8.41827L7.67176 7.09L9.00003 2.96245L13.2331 3.87482L16.4483 0.970001Z" fill="#FDB62F"/>
<path d="M31.3451 15.8665L28.4403 12.6514L29.3465 8.41828L26.1376 7.38174C22.6555 16.9962 14.3818 22.4335 7.89551 25.3321L9.00033 28.7645L13.2334 27.8583L16.4486 30.7631L19.6638 27.8583L23.8969 28.7645L25.2251 24.6431L29.3465 23.3148L28.4403 19.0817L31.3451 15.8665Z" fill="#FFA83D"/>
<path d="M12.7239 14.6252C11.3529 14.6252 10.2412 13.5135 10.2412 12.1424C10.2412 10.7713 11.3529 9.6597 12.7239 9.6597C14.095 9.6597 15.2067 10.7713 15.2067 12.1424C15.2067 13.5135 14.095 14.6252 12.7239 14.6252ZM12.7239 10.901C12.0381 10.901 11.4826 11.4565 11.4826 12.1424C11.4826 12.8282 12.0381 13.3837 12.7239 13.3837C13.4098 13.3837 13.9653 12.8282 13.9653 12.1424C13.9653 11.4565 13.4098 10.901 12.7239 10.901Z" fill="white"/>
<path d="M20.7933 22.6942C19.4222 22.6942 18.3105 21.5825 18.3105 20.2114C18.3105 18.8403 19.4222 17.7287 20.7933 17.7287C22.1644 17.7287 23.276 18.8403 23.276 20.2114C23.276 21.5825 22.1644 22.6942 20.7933 22.6942ZM20.7933 18.97C20.1075 18.97 19.5519 19.5255 19.5519 20.2114C19.5519 20.8972 20.1075 21.4527 20.7933 21.4527C21.4791 21.4527 22.0346 20.8972 22.0346 20.2114C22.0346 19.5255 21.4792 18.97 20.7933 18.97Z" fill="white"/>
<path d="M12.5394 20.6516L21.2294 11.9617L20.3516 11.0839L11.6617 19.7739L12.5394 20.6516Z" fill="white"/>
</g>
<defs>
<clipPath id="clip0_1_130">
<rect width="36" height="36" fill="white" transform="translate(0 0.970001)"/>
</clipPath>
</defs>
</svg>
