<svg width="25" height="23" viewBox="0 0 25 23" fill="none" xmlns="http://www.w3.org/2000/svg">
<path d="M17.2002 23.47C18.1667 23.47 18.9502 22.6865 18.9502 21.72C18.9502 20.7535 18.1667 19.97 17.2002 19.97C16.2337 19.97 15.4502 20.7535 15.4502 21.72C15.4502 22.6865 16.2337 23.47 17.2002 23.47Z" fill="#425A8B"/>
<path d="M9.2002 23.47C10.1667 23.47 10.9502 22.6865 10.9502 21.72C10.9502 20.7535 10.1667 19.97 9.2002 19.97C8.2337 19.97 7.4502 20.7535 7.4502 21.72C7.4502 22.6865 8.2337 23.47 9.2002 23.47Z" fill="#425A8B"/>
<path opacity="0.4" d="M5.7902 4.90997L5.5902 7.35997C5.5502 7.82997 5.9202 8.21997 6.3902 8.21997H21.7002C22.1202 8.21997 22.4702 7.89996 22.5002 7.47996C22.6302 5.70996 21.2802 4.26997 19.5102 4.26997H7.24019C7.14019 3.82997 6.94019 3.40997 6.63019 3.05997C6.14019 2.52997 5.4402 2.21997 4.7202 2.21997H2.9502C2.5402 2.21997 2.2002 2.55997 2.2002 2.96997C2.2002 3.37997 2.5402 3.71997 2.9502 3.71997H4.69021C5.00021 3.71997 5.2902 3.84998 5.5002 4.06998C5.7102 4.29998 5.8102 4.59997 5.7902 4.90997Z" fill="#425A8B"/>
<path d="M21.4603 9.71997H6.12026C5.70026 9.71997 5.36025 10.04 5.32025 10.45L4.96025 14.8C4.82025 16.5 6.16026 17.97 7.87026 17.97H18.9903C20.4903 17.97 21.8103 16.74 21.9203 15.24L22.2503 10.57C22.2903 10.11 21.9303 9.71997 21.4603 9.71997Z" fill="#425A8B"/>
</svg>
