<svg enable-background="new 0 0 24 24" viewBox="0 0 24 24" xmlns="http://www.w3.org/2000/svg"><path d="m11.8 2c-.2 0-.4.1-.5.2l-1.4 1.3-1.6-.3c-.5-.1-.8.2-.9.6l-.3 1.8-1.7.8c-.4.2-.5.6-.3 1l.8 1.6-.8 1.6c-.2.4 0 .8.3 1l1.7.8.3 1.8c.1.4.5.7.9.6l1.9-.3 1.4 1.3c.3.3.8.3 1.1 0l1.4-1.3 1.9.3c.4.1.8-.2.9-.6l.3-1.8 1.7-.8c.4-.2.5-.6.3-1l-1.1-1.6.8-1.6c.2-.4.1-.8-.3-1l-1.7-.8-.3-1.8c-.1-.4-.5-.7-.9-.6l-1.9.3-1.4-1.3c-.1-.2-.4-.2-.6-.2zm-5.7 11.1-3.1 6.2 3.6-.5 1.8 3.2 2.6-5.3-.2-.2-1-.9-1.4.2c-.9.1-1.8-.5-2-1.4zm11.8 0-.3 1.3c-.2.8-.9 1.4-1.7 1.4h-.2l-1.4-.2-1 .9-.2.2 2.6 5.3 1.8-3.1 3.6.5z"/><path d="m0 0h24v24h-24z" fill="none"/></svg>