<svg width="25" height="23" viewBox="0 0 25 23" fill="none" xmlns="http://www.w3.org/2000/svg">
<path opacity="0.4" d="M11.3301 17.12V19.82C11.3301 22.07 10.4301 22.97 8.18008 22.97H5.48008C3.23008 22.97 2.33008 22.07 2.33008 19.82V17.12C2.33008 14.87 3.23008 13.97 5.48008 13.97H8.18008C10.4301 13.97 11.3301 14.87 11.3301 17.12Z" fill="#425A8B"/>
<path opacity="0.4" d="M17.8301 11.97C20.3154 11.97 22.3301 9.95525 22.3301 7.46997C22.3301 4.98469 20.3154 2.96997 17.8301 2.96997C15.3448 2.96997 13.3301 4.98469 13.3301 7.46997C13.3301 9.95525 15.3448 11.97 17.8301 11.97Z" fill="#425A8B"/>
<path d="M15.1105 22.97C14.8405 22.97 14.5905 22.82 14.4605 22.59C14.3305 22.35 14.3305 22.07 14.4705 21.83L15.4405 20.21C15.6505 19.85 16.1105 19.74 16.4705 19.95C16.8305 20.16 16.9405 20.62 16.7305 20.98L16.5505 21.28C19.0205 20.64 20.8405 18.4 20.8405 15.74C20.8405 15.33 21.1805 14.99 21.5905 14.99C22.0005 14.99 22.3305 15.33 22.3305 15.75C22.3305 19.73 19.0905 22.97 15.1105 22.97Z" fill="#425A8B"/>
<path d="M3.08008 10.94C2.67008 10.94 2.33008 10.61 2.33008 10.19C2.33008 6.20997 5.57008 2.96997 9.55008 2.96997C9.83008 2.96997 10.0701 3.11997 10.2101 3.34997C10.3401 3.58997 10.3401 3.86997 10.2001 4.10997L9.23008 5.71997C9.01008 6.07997 8.55008 6.19997 8.20008 5.97997C7.84008 5.76997 7.73008 5.30997 7.94008 4.94997L8.12008 4.64997C5.66008 5.28997 3.83008 7.52997 3.83008 10.19C3.83008 10.61 3.49008 10.94 3.08008 10.94Z" fill="#425A8B"/>
</svg>
