<svg enable-background="new 0 0 128 128" viewBox="0 0 128 128" xmlns="http://www.w3.org/2000/svg" xmlns:xlink="http://www.w3.org/1999/xlink"><linearGradient id="a" gradientUnits="userSpaceOnUse" x1="64.039" x2="64.039" y1="39" y2="101.26"><stop offset=".0074201" stop-color="#fff8e1"/><stop offset=".1774" stop-color="#fff6da"/><stop offset=".4164" stop-color="#fff2c8"/><stop offset=".6962" stop-color="#ffeaaa"/><stop offset=".9948" stop-color="#ffe082"/></linearGradient><linearGradient id="b" gradientUnits="userSpaceOnUse" x1="80.097" x2="80.097" y1="29.333" y2="90.334"><stop offset=".0048889" stop-color="#bcaaa4"/><stop offset=".3916" stop-color="#ac958e"/><stop offset=".9986" stop-color="#8d6e63"/></linearGradient><path d="m124.19 53.28c0-5.11-4.18-9.28-9.28-9.28h-97.58c-5.11 0-9.28 4.18-9.28 9.28l-4.17 38.22h120.31z" fill="url(#a)"/><path d="m3.88 91.5v11.22c0 5.11 4.18 9.28 9.28 9.28h101.74c5.11 0 9.28-4.18 9.28-9.28v-11.22z" fill="#66bb6a"/><path d="m18.41 47 97.5.5c3.45 0 5.49 2.12 5.49 5.51l-.4 38.49v10.79c0 3.84-3.32 6.64-5.1 6.64l-101.74.11c-6.05 0-7.3-3.81-7.3-6.99l.04-10.63 4.13-38.09.02-.1c.37-5.15 4.21-6.23 7.36-6.23m.01-3c-5.62 0-9.92 2.92-10.36 9l-4.15 38.25-.03 10.79c0 5.11 2.82 10 10.32 10l101.69-.11c3.58 0 8.1-4.27 8.1-9.64v-10.79l.4-38.47c0-5.11-3.44-8.53-8.54-8.53z" fill="#424242" opacity=".2"/><path d="m29.9 75.34h-14.59c-1.65 0-2.85-1.31-2.67-2.92l1.75-15.51c.18-1.61 1.67-2.92 3.33-2.92h12.93c1.65 0 2.85 1.31 2.67 2.92l-.1 15.51c-.18 1.62-1.67 2.92-3.32 2.92z" fill="#546e7a"/><path d="m124.19 91.65h-88.19v-59.3c0-2.21 1.79-4 4-4h80.19c2.21 0 4 1.79 4 4z" fill="url(#b)"/><path d="m30.65 56c.24 0 .43.07.55.21.11.12.15.28.13.48-.01.07-.01.14-.01.21l-.1 15.38c-.11.57-.72 1.06-1.33 1.06h-14.58c-.24 0-.43-.07-.55-.21-.11-.12-.15-.28-.13-.48l1.75-15.51c.07-.6.71-1.14 1.34-1.14zm0-2h-12.93c-1.65 0-3.14 1.31-3.33 2.92l-1.75 15.51c-.18 1.61 1.01 2.92 2.67 2.92h14.59c1.65 0 3.14-1.31 3.33-2.92l.1-15.51c.17-1.61-1.02-2.92-2.68-2.92z" fill="#424242" opacity=".2"/><path d="m76.33 28.35h11.29v23.65h-11.29z" fill="#6d4c41"/><path d="m76.33 68.84h11.29v22.81h-11.29z" fill="#6d4c41"/><path d="m120.19 31.35c.55 0 1 .45 1 1v56.3h-82.19v-56.3c0-.55.45-1 1-1zm0-3h-80.19c-2.21 0-4 1.79-4 4v59.3h88.19v-59.3c0-2.21-1.79-4-4-4z" fill="#424242" opacity=".2"/><circle cx="30" cy="110" fill="#4e342e" r="14"/><path d="m30 98c6.62 0 12 5.38 12 12s-5.38 12-12 12-12-5.38-12-12 5.38-12 12-12m0-2c-7.73 0-14 6.27-14 14s6.27 14 14 14 14-6.27 14-14-6.27-14-14-14z" fill="#eee" opacity=".2"/><circle cx="30" cy="110" fill="#bdbdbd" r="6"/><circle cx="102" cy="110" fill="#4e342e" r="14"/><path d="m102 98c6.62 0 12 5.38 12 12s-5.38 12-12 12-12-5.38-12-12 5.38-12 12-12m0-2c-7.73 0-14 6.27-14 14s6.27 14 14 14 14-6.27 14-14-6.27-14-14-14z" fill="#eee" opacity=".2"/><circle cx="102" cy="110" fill="#bdbdbd" r="6"/></svg>