<svg width="20" height="20" viewBox="0 0 20 20" fill="none" xmlns="http://www.w3.org/2000/svg">
<path d="M6 2C5.46957 2 4.96086 2.21071 4.58579 2.58579C4.21071 2.96086 4 3.46957 4 4V7H6.5C7.16304 7 7.79893 7.26339 8.26777 7.73223C8.73661 8.20107 9 8.83696 9 9.5V13H12V15H9V16H14.5C14.6326 16 14.7598 15.9473 14.8536 15.8536C14.9473 15.7598 15 15.6326 15 15.5C15 15.3674 14.9473 15.2402 14.8536 15.1464C14.7598 15.0527 14.6326 15 14.5 15H13V13H16C16.5304 13 17.0391 12.7893 17.4142 12.4142C17.7893 12.0391 18 11.5304 18 11V4C18 3.46957 17.7893 2.96086 17.4142 2.58579C17.0391 2.21071 16.5304 2 16 2H6ZM3.5 8C3.10218 8 2.72064 8.15804 2.43934 8.43934C2.15804 8.72064 2 9.10218 2 9.5V16.5C2 16.8978 2.15804 17.2794 2.43934 17.5607C2.72064 17.842 3.10218 18 3.5 18H6.5C6.89782 18 7.27936 17.842 7.56066 17.5607C7.84196 17.2794 8 16.8978 8 16.5V9.5C8 9.10218 7.84196 8.72064 7.56066 8.43934C7.27936 8.15804 6.89782 8 6.5 8H3.5ZM4 15.5C4 15.3674 4.05268 15.2402 4.14645 15.1464C4.24021 15.0527 4.36739 15 4.5 15H5.5C5.63261 15 5.75979 15.0527 5.85355 15.1464C5.94732 15.2402 6 15.3674 6 15.5C6 15.6326 5.94732 15.7598 5.85355 15.8536C5.75979 15.9473 5.63261 16 5.5 16H4.5C4.36739 16 4.24021 15.9473 4.14645 15.8536C4.05268 15.7598 4 15.6326 4 15.5Z" fill="black"/>
</svg>
