<svg width="25" height="23" viewBox="0 0 25 23" fill="none" xmlns="http://www.w3.org/2000/svg">
<path d="M22.2998 9.66001C22.2998 10.85 22.1098 11.95 21.7798 12.97H2.8198C2.4898 11.95 2.2998 10.85 2.2998 9.66001C2.2998 6.57001 4.7898 4.07001 7.8598 4.07001C9.6698 4.07001 11.2898 4.95001 12.2998 6.30001C13.3098 4.95001 14.9298 4.07001 16.7398 4.07001C19.8098 4.07001 22.2998 6.57001 22.2998 9.66001Z" fill="#425A8B"/>
<path opacity="0.4" d="M21.7803 12.97C20.2003 17.97 15.3303 20.96 12.9203 21.78C12.5803 21.9 12.0203 21.9 11.6803 21.78C9.27031 20.96 4.40031 17.97 2.82031 12.97H21.7803Z" fill="#425A8B"/>
</svg>
