<svg width="24" height="24" viewBox="0 0 24 24" fill="none" xmlns="http://www.w3.org/2000/svg">
<path opacity="0.5" d="M19 8.974V14.986C19 18.86 15.866 22 12 22C8.134 22 5 18.86 5 14.986V8.974C4.99869 7.24551 5.63603 5.57747 6.78962 4.29025C7.94321 3.00303 9.5317 2.1874 11.25 2V5.385C10.659 5.667 10.25 6.271 10.25 6.97V8.974C10.25 9.943 11.034 10.728 12 10.728C12.966 10.728 13.75 9.943 13.75 8.974V6.97C13.75 6.27 13.341 5.667 12.75 5.385V2C14.4683 2.1874 16.0568 3.00303 17.2104 4.29025C18.364 5.57747 19.0013 7.24551 19 8.974Z" fill="black"/>
<path d="M13.75 8.97401V6.97001C13.75 6.27001 13.341 5.66701 12.75 5.38501V2.00001C12.2514 1.94629 11.7486 1.94629 11.25 2.00001V5.38501C10.659 5.66701 10.25 6.27001 10.25 6.97001V8.97401C10.25 9.94201 11.034 10.727 12 10.727C12.966 10.727 13.75 9.94201 13.75 8.97401Z" fill="black"/>
</svg>
