<svg width="15" height="15" viewBox="0 0 15 15" fill="none" xmlns="http://www.w3.org/2000/svg">
<g clip-path="url(#clip0_167_1176)">
<path d="M14.5 12.5V13H15V12.5H14.5ZM12.5 12.5H12V13H12.5V12.5ZM0.5 12.5H0V13H0.5V12.5ZM2.5 12.5V13H3V12.5H2.5ZM10 5V1.654H9V5H10ZM14 3.5V12.5H15V3.5H14ZM14.5 12H12.5V13H14.5V12ZM12.5 6H11V7H12.5V6ZM10.654 1H11.5V0H10.654V1ZM11 6C10.7348 6 10.4804 5.89464 10.2929 5.70711C10.1054 5.51957 10 5.26522 10 5H9C9 5.53043 9.21071 6.03914 9.58579 6.41421C9.96086 6.78929 10.4696 7 11 7V6ZM15 3.5C15 2.57174 14.6313 1.6815 13.9749 1.02513C13.3185 0.368749 12.4283 0 11.5 0V1C12.163 1 12.7989 1.26339 13.2678 1.73223C13.7366 2.20107 14 2.83696 14 3.5H15ZM10 1.654C10 1.293 10.293 1 10.654 1V0C9.74 0 9 0.74 9 1.654H10ZM13 12.5V15H14V12.5H13ZM6 5V1.654H5V5H6ZM0 3.5V12.5H1V3.5H0ZM0.5 13H2.5V12H0.5V13ZM2.5 7H4V6H2.5V7ZM4.346 0H3.5V1H4.346V0ZM4 7C4.53043 7 5.03914 6.78929 5.41421 6.41421C5.78929 6.03914 6 5.53043 6 5H5C5 5.26522 4.89464 5.51957 4.70711 5.70711C4.51957 5.89464 4.26522 6 4 6V7ZM1 3.5C1 2.83696 1.26339 2.20107 1.73223 1.73223C2.20107 1.26339 2.83696 1 3.5 1V0C2.57174 0 1.6815 0.368749 1.02513 1.02513C0.368749 1.6815 0 2.57174 0 3.5H1ZM6 1.654C6 0.74 5.26 0 4.346 0V1C4.707 1 5 1.293 5 1.654H6ZM1 12.5V15H2V12.5H1ZM12 4V6.5H13V4H12ZM2 4V6.5H3V4H2ZM13 12.5V6.5H12V12.5H13ZM3 12.5V6.5H2V12.5H3Z" fill="black"/>
</g>
<defs>
<clipPath id="clip0_167_1176">
<rect width="15" height="15" fill="white"/>
</clipPath>
</defs>
</svg>
