<svg width="41" height="41" viewBox="0 0 41 41" fill="none" xmlns="http://www.w3.org/2000/svg">
<g clip-path="url(#clip0_1_3131)">
<g clip-path="url(#clip1_1_3131)">
<path d="M32.3804 11.9482H33.7137V15.1231H32.3804V11.9482Z" fill="#425A8B"/>
<path d="M29.7135 11.9482H31.0468V15.1231H29.7135V11.9482Z" fill="#425A8B"/>
<path d="M27.0466 11.9482H28.38V15.1231H27.0466V11.9482Z" fill="#425A8B"/>
<path d="M24.38 11.9482H25.7134V15.1231H24.38V11.9482Z" fill="#425A8B"/>
<path d="M32.3804 27.0288H33.7137V28.6162H32.3804V27.0288Z" fill="#425A8B"/>
<path d="M29.7135 27.0288H31.0468V28.6162H29.7135V27.0288Z" fill="#425A8B"/>
<path d="M27.0466 27.0288H28.38V28.6162H27.0466V27.0288Z" fill="#425A8B"/>
<path d="M24.38 27.0288H25.7134V28.6162H24.38V27.0288Z" fill="#425A8B"/>
<path d="M2.37941 24.5878V29.4097C2.38169 31.6005 3.87294 33.3755 5.71283 33.3782H17.7653L29.6321 40.158C30.3756 40.5819 31.2302 40.6362 32.0072 40.3083C32.7843 39.9808 33.4197 39.2984 33.7728 38.4117L35.8344 33.2526C37.3248 32.8217 38.3755 31.2354 38.3804 29.4097V26.8825L40.0771 22.6396C40.8138 20.7941 40.1611 18.587 38.6158 17.6979L38.3804 17.5638V11.9482C38.3781 9.75749 36.8872 7.98248 35.047 7.97977H21.6058L11.129 1.99369C10.3858 1.56971 9.531 1.51545 8.75425 1.84332C7.97722 2.1708 7.34179 2.85327 6.98826 3.73998L5.27206 8.03287C3.62066 8.29213 2.38461 9.96516 2.37941 11.9482V15.2684L0.682745 19.5121C-0.0536032 21.3576 0.599084 23.5647 2.14405 24.4537L2.37941 24.5878ZM38.3804 19.3907C39.0233 20.0077 39.2268 21.0688 38.8726 21.9567L38.3804 23.188V19.3907ZM32.5671 37.7253C32.3663 38.2315 32.0046 38.6213 31.5618 38.8085C31.1188 38.9961 30.6315 38.9655 30.2077 38.7237L20.8468 33.3782H34.3071L32.5671 37.7253ZM37.047 29.4097C37.047 30.7247 36.1515 31.7907 35.047 31.7907H13.0463V22.6125C14.5292 24.3107 16.5078 25.2578 18.5654 25.2547V23.6673C16.8538 23.6697 15.2076 22.8833 13.9725 21.4727H37.047V29.4097ZM13.6678 19.3923L14.9797 15.4676C15.2395 14.7072 15.8973 14.2511 16.581 14.3581C17.2646 14.4647 17.8014 15.1072 17.8873 15.9218C17.9733 16.7361 17.5865 17.517 16.9465 17.8216L13.6678 19.3923ZM35.047 9.56716C36.1515 9.56716 37.047 10.6333 37.047 11.9482V19.8852H16.2144L17.4439 19.2977C18.6536 18.7269 19.3854 17.2538 19.2233 15.7168C19.0612 14.1797 18.0458 12.9679 16.7554 12.7707C15.4648 12.5734 14.2254 13.4407 13.7423 14.8793L13.0463 16.9597V9.56716H35.047ZM8.19305 4.42323C8.39357 3.9171 8.75525 3.52722 9.19825 3.33965C9.641 3.15246 10.1283 3.18307 10.5525 3.42491L18.5253 7.97977H6.77081L8.19305 4.42323ZM3.71278 11.9482C3.71278 10.6333 4.60831 9.56716 5.71283 9.56716H11.713V16.4058L11.2023 14.8793C10.7168 13.4481 9.4805 12.5877 8.19467 12.7866C6.90883 12.985 5.89773 14.1918 5.73497 15.7234C5.57188 17.2546 6.29814 18.7238 7.50162 19.2977L8.73017 19.8852H3.71278V11.9482ZM11.2778 19.3923L7.99903 17.8216C7.35285 17.5204 6.95994 16.7364 7.04425 15.9164C7.12856 15.0963 7.66894 14.4487 8.35711 14.3422C9.04525 14.2356 9.70642 14.6972 9.96425 15.4645L11.2778 19.3923ZM3.71278 21.4727H10.9724C9.73701 22.8833 8.09116 23.6697 6.37952 23.6673V25.2547C8.35028 25.2571 10.251 24.3871 11.713 22.814V31.7907H5.71283C4.60831 31.7907 3.71278 30.7247 3.71278 29.4097V21.4727ZM1.88753 20.1949L2.37941 18.9629V22.7609C1.73649 22.1439 1.53303 21.0828 1.88753 20.1949Z" fill="#425A8B"/>
</g>
</g>
<defs>
<clipPath id="clip0_1_3131">
<rect width="40" height="40" fill="white" transform="translate(0.380005 0.979492)"/>
</clipPath>
<clipPath id="clip1_1_3131">
<rect width="40" height="40" fill="white" transform="translate(0.380005 0.979492)"/>
</clipPath>
</defs>
</svg>
